:SAMPLES-PER-SECOND 30
:FULLY-SPECIFIED
:DEGREES
292
root  -1.23758 6.04051 15.208 -46.3804 -6.45723 0.753471
RightUpLeg  -87.0447 -10.2266 7.4538
RightLeg  89.2566 16.0263 -4.82041
RightFoot  28.5587 2.06084 -5.70607
RightToes  5.82077e-011 -3.18055e-015 -2.98177e-016
Spine  31.4041 0.83159 3.64257
Spine1  19.9278 -1.70706 3.28366
HEad  -22.4625 13.7744 5.92866
LeftShoulder1  -3.88251e-019 9.70628e-020 -3.87848e-018
LeftArm  22.2962 85.3196 -46.077
LeftForeArm  -14.0926 -22.9151 -3.72551
LeftHand  -11.6556 -9.95704 77.0303
RightShoulder  6.04439 9.60495 29.7033
RightArm  60.7746 -63.4557 -17.5065
RightForeArm  16.2296 29.2418 -16.4219
RightHand  -12.9778 11.3675 -76.1614
LeftUpLeg  -87.4055 9.57069 3.02579
LeftLeg  89.0456 -13.8233 9.09131
LeftFoot  32.2884 -0.208299 0.722321
LeftToes  5.91571e-011 -3.44359e-011 -3.93244e-011
293
root  -1.23391 6.05375 15.2034 -46.1357 -6.59793 0.708629
RightUpLeg  -87.107 -9.86484 7.43061
RightLeg  89.0307 16.0142 -4.92437
RightFoot  28.8208 1.93258 -5.33636
RightToes  5.82077e-011 -3.18055e-015 -2.98177e-016
Spine  30.5507 0.997334 3.43135
Spine1  20.0608 -1.72115 3.33059
HEad  -21.9763 13.9082 5.40589
LeftShoulder1  -3.88251e-019 9.70628e-020 -3.87848e-018
LeftArm  -0.938535 85.6165 -58.6801
LeftForeArm  -5.93378 -20.2705 -5.12093
LeftHand  -10.5373 -9.17541 74.2874
RightShoulder  5.86823 9.48763 28.9696
RightArm  59.9329 -64.223 -16.6669
RightForeArm  17.2378 29.0042 -16.3226
RightHand  -13.2882 11.8203 -76.0065
LeftUpLeg  -87.6349 9.70575 3.10102
LeftLeg  88.9907 -13.8203 9.19447
LeftFoot  32.3294 -0.26872 0.866672
LeftToes  5.91571e-011 -3.44359e-011 -3.93244e-011
294
root  -1.21559 6.09127 15.2315 -45.4527 -6.58152 0.819036
RightUpLeg  -87.7576 -9.54243 7.34097
RightLeg  88.7162 16.0082 -5.42559
RightFoot  28.8515 1.70841 -4.75059
RightToes  5.82077e-011 -3.18055e-015 -2.98177e-016
Spine  29.7237 1.15141 2.8914
Spine1  19.5103 -1.86234 3.55542
HEad  -22.0618 13.7369 3.95437
LeftShoulder1  -3.88251e-019 9.70628e-020 -3.87848e-018
LeftArm  -17.5024 86.454 -70.9765
LeftForeArm  -3.52538 -19.4983 -4.69573
LeftHand  -8.58685 -7.51612 70.0589
RightShoulder  5.7821 9.43001 28.608
RightArm  63.1589 -63.5169 -17.4358
RightForeArm  16.0479 29.036 -16.2954
RightHand  -13.1507 11.9138 -75.1202
LeftUpLeg  -88.3562 9.76957 2.86503
LeftLeg  89.1235 -13.8405 9.21145
LeftFoot  32.1571 -0.443524 1.28836
LeftToes  5.91571e-011 -3.44359e-011 -3.93244e-011
295
root  -1.19022 6.12667 15.3091 -44.6493 -6.35043 1.05586
RightUpLeg  -88.7569 -9.33834 7.04386
RightLeg  88.6745 16.0225 -5.95404
RightFoot  28.858 1.61956 -4.51919
RightToes  5.82077e-011 -3.18055e-015 -2.98177e-016
Spine  28.9862 1.29068 2.15676
Spine1  18.853 -2.05776 3.9211
HEad  -22.2779 13.5553 2.19241
LeftShoulder1  -3.88251e-019 9.70628e-020 -3.87848e-018
LeftArm  -27.7553 87.0563 -80.4944
LeftForeArm  -2.8433 -19.1712 -4.73584
LeftHand  -8.09667 -6.91295 69.4839
RightShoulder  6.15296 9.70556 30.0816
RightArm  69.1305 -60.4347 -19.7409
RightForeArm  11.5792 29.8174 -16.5661
RightHand  -12.6247 11.2766 -74.9231
LeftUpLeg  -89.2618 9.76341 2.30646
LeftLeg  89.3596 -13.8751 9.21066
LeftFoot  31.9567 -0.492966 1.41218
LeftToes  5.91571e-011 -3.44359e-011 -3.93244e-011
296
root  -1.13673 6.14804 15.3758 -44.4731 -6.72329 0.992988
RightUpLeg  -88.9215 -9.18722 7.27871
RightLeg  88.8486 16.0388 -5.96589
RightFoot  28.7961 1.70957 -4.76009
RightToes  5.82077e-011 -3.18055e-015 -2.98177e-016
Spine  28.7042 1.41387 2.48961
Spine1  19.0586 -1.95299 4.08256
HEad  -22.8717 13.2143 0.530033
LeftShoulder1  -3.88251e-019 9.70628e-020 -3.87848e-018
LeftArm  -31.6378 87.13 -85.1499
LeftForeArm  -2.74211 -19.4537 -4.58411
LeftHand  -9.66267 -8.45593 72.4462
RightShoulder  6.64956 10.0203 32.1001
RightArm  76.0264 -56.337 -22.2081
RightForeArm  6.76947 31.9372 -17.6227
RightHand  -12.3434 10.8915 -74.9606
LeftUpLeg  -89.5533 10.0246 2.5078
LeftLeg  89.6299 -13.9189 9.28586
LeftFoot  31.9551 -0.387684 1.15869
LeftToes  5.91571e-011 -3.44359e-011 -3.93244e-011
297
root  -1.06772 6.1629 15.4311 -44.645 -7.6857 0.758425
RightUpLeg  -88.5554 -9.11207 8.12834
RightLeg  89.0334 16.0432 -5.64567
RightFoot  28.5972 1.7929 -5.00025
RightToes  5.82077e-011 -3.18055e-015 -2.98177e-016
Spine  28.5114 1.54696 3.87691
Spine1  19.8926 -1.35405 3.53489
HEad  -23.7369 12.2677 -0.984375
LeftShoulder1  -3.88251e-019 9.70628e-020 -3.87848e-018
LeftArm  -29.0905 87.2041 -84.5396
LeftForeArm  -3.6611 -20.8856 -3.50176
LeftHand  -11.2797 -10.1131 74.633
RightShoulder  6.77289 10.0715 32.6402
RightArm  82.2367 -53.1467 -23.9713
RightForeArm  5.89857 34.8063 -19.4087
RightHand  -12.2215 11.2954 -73.0498
LeftUpLeg  -89.4841 10.6107 3.43352
LeftLeg  89.9086 -13.9813 9.60746
LeftFoot  32.1227 -0.260814 0.850365
LeftToes  5.91571e-011 -3.44359e-011 -3.93244e-011
298
root  -1.03858 6.1628 15.5148 -44.6469 -8.09173 0.889181
RightUpLeg  -88.7356 -9.3387 8.64457
RightLeg  89.0875 16.0621 -5.97983
RightFoot  28.5355 1.81494 -5.06556
RightToes  5.82077e-011 -3.18055e-015 -2.98177e-016
Spine  28.1015 1.73677 4.59327
Spine1  20.3401 -0.56194 2.40694
HEad  -24.0669 10.8648 -2.38999
LeftShoulder1  -3.88251e-019 9.70628e-020 -3.87848e-018
LeftArm  -24.6125 87.6536 -81.4912
LeftForeArm  -4.67736 -22.3701 -2.03348
LeftHand  -11.4723 -10.3524 74.6684
RightShoulder  6.49516 9.89538 31.5389
RightArm  85.7138 -51.0696 -25.1784
RightForeArm  8.88176 38.2345 -21.9428
RightHand  -11.3724 11.438 -68.6359
LeftUpLeg  -89.5756 10.985 3.79358
LeftLeg  90.0916 -14.0573 10.27
LeftFoot  32.2191 -0.196541 0.695023
LeftToes  5.91571e-011 -3.44359e-011 -3.93244e-011
299
root  -1.06516 6.12711 15.5918 -45.0193 -7.70314 1.27699
RightUpLeg  -88.9433 -9.83393 8.61697
RightLeg  88.8326 16.1036 -7.53968
RightFoot  28.8864 1.981 -5.45248
RightToes  5.82077e-011 -3.18055e-015 -2.98177e-016
Spine  28.1671 1.91478 4.07334
Spine1  20.1373 0.0691201 1.25349
HEad  -23.3669 9.68997 -3.8283
LeftShoulder1  -3.88251e-019 9.70628e-020 -3.87848e-018
LeftArm  -22.3853 88.1554 -77.6745
LeftForeArm  -3.48509 -22.5583 -1.45658
LeftHand  -10.9958 -9.82551 74.2574
RightShoulder  6.06702 9.64287 29.7472
RightArm  84.7335 -48.9619 -25.398
RightForeArm  12.6416 42.9323 -25.9049
RightHand  -10.372 11.7421 -62.9418
LeftUpLeg  -89.2925 10.8924 3.4535
LeftLeg  90.1676 -14.1199 10.9142
LeftFoot  32.1287 -0.241729 0.804602
LeftToes  5.91571e-011 -3.44359e-011 -3.93244e-011
